# xmcd
# 
# Track frame offsets:
#     150
#     13242
#     27275
#     46097
#     58495
#     77335
#     92992
#     110735
#     127862
#     145820
# 
# Disc length: 2169
# 
# Revision: 4
# Processed by: cddbd v1.5.2PL0 Copyright (c) Steve Scherf et al.
# Submitted via: BonkEnc v1.0.6
# 
DISCID=8208770a
DTITLE=Jo Dee Messina - Jo Dee Messina
DYEAR=1996
DGENRE=Country
TTITLE0=You're Not In Kansas Anymore
TTITLE1=On a Wing and a Prayer
TTITLE2=He'd Never Seen Julie Cry
TTITLE3=Do You Wanna Make Something of It
TTITLE4=Let It Go
TTITLE5=Head Carolina, Tails California
TTITLE6=Walk to the Light
TTITLE7=I Didn't Have to Leave You
TTITLE8=Every Little Girl's Dream
TTITLE9=Another Shoulder at the Wheel
EXTD=
EXTT0=
EXTT1=
EXTT2=
EXTT3=
EXTT4=
EXTT5=
EXTT6=
EXTT7=
EXTT8=
EXTT9=
PLAYORDER=
